<svg width="1400" height="900" viewBox="0 0 1400 900" fill="none" xmlns="http://www.w3.org/2000/svg">
  <rect width="1400" height="900" fill="#F5ECDD"/>
  <circle cx="1114" cy="168" r="194" fill="#E7D3B3"/>
  <circle cx="266" cy="728" r="220" fill="#EFE3CE"/>
  <rect x="274" y="96" width="868" height="708" rx="42" fill="#FBF7EF"/>
  <path d="M707 261C761.124 261 805 217.124 805 163C805 108.876 761.124 65 707 65C652.876 65 609 108.876 609 163C609 217.124 652.876 261 707 261Z" fill="#CCB08B"/>
  <path d="M598 347C598 306.131 631.131 273 672 273H742C782.869 273 816 306.131 816 347V612H598V347Z" fill="#D8C0A0"/>
  <path d="M558 448C558 414.863 584.863 388 618 388H796C829.137 388 856 414.863 856 448V725H558V448Z" fill="#B89169"/>
  <path d="M487 799C535.032 706.763 617.998 660.645 736 660.645C854.002 660.645 936.968 706.763 985 799H487Z" fill="#F2E7D6"/>
  <rect x="385" y="140" width="116" height="436" rx="58" fill="#EFE4D2"/>
  <rect x="909" y="206" width="106" height="368" rx="53" fill="#E2CFB2"/>
</svg>